<svg width="30" height="30" viewBox="0 0 30 30" fill="none" xmlns="http://www.w3.org/2000/svg">
<rect x="0.5" y="0.5" width="29" height="29" rx="9.5" stroke="#111026"/>
<path fill-rule="evenodd" clip-rule="evenodd" d="M22.1047 19.4488L22.3273 20.5061C22.5382 21.4201 22.33 22.3806 21.7594 23.1252C21.1888 23.8699 20.3156 24.3208 19.3781 24.3549H10.7717C9.83421 24.3208 8.96094 23.8699 8.39038 23.1252C7.81981 22.3806 7.61155 21.4201 7.82247 20.5061L8.04505 19.4488C8.30105 18.0176 9.53136 16.9658 10.985 16.9355H19.1648C20.6184 16.9658 21.8487 18.0176 22.1047 19.4488ZM19.3781 22.9545C19.8491 22.949 20.2922 22.7308 20.5838 22.3609V22.3702C20.9415 21.9215 21.0808 21.3368 20.964 20.775L20.7414 19.7178C20.6179 18.9343 19.9574 18.3476 19.1648 18.3174H10.985C10.1924 18.3476 9.53186 18.9343 9.40836 19.7178L9.18578 20.775C9.07185 21.3339 9.21107 21.9145 9.56603 22.3609C9.85754 22.7308 10.3007 22.949 10.7717 22.9545H19.3781Z" fill="#111026"/>
<path fill-rule="evenodd" clip-rule="evenodd" d="M15.5386 15.0807H14.6112C12.5624 15.0807 10.9015 13.4198 10.9015 11.371V8.9226C10.899 8.0954 11.2265 7.30136 11.8115 6.71643C12.3964 6.13151 13.1904 5.804 14.0176 5.80647H16.1321C16.9593 5.804 17.7534 6.13151 18.3383 6.71643C18.9232 7.30136 19.2507 8.0954 19.2483 8.9226V11.371C19.2483 13.4198 17.5874 15.0807 15.5386 15.0807ZM14.0176 7.1976C13.0649 7.1976 12.2926 7.96991 12.2926 8.9226V11.371C12.2926 12.6515 13.3307 13.6895 14.6112 13.6895H15.5386C16.8191 13.6895 17.8571 12.6515 17.8571 11.371V8.9226C17.8571 8.4651 17.6754 8.02634 17.3519 7.70284C17.0284 7.37934 16.5896 7.1976 16.1321 7.1976H14.0176Z" fill="#111026"/>
</svg>
