<svg width="30" height="30" viewBox="0 0 30 30" fill="none" xmlns="http://www.w3.org/2000/svg">
<path d="M16.9324 20.4842C16.42 19.911 15.7249 19.589 15 19.589C14.2751 19.589 13.58 19.911 13.0676 20.4842L9.21947 24.7858C8.43763 25.6593 8.20367 26.9733 8.62673 28.1149C9.04979 29.2564 10.0465 30.0005 11.1519 30H18.8481C19.9535 30.0005 20.9502 29.2564 21.3733 28.1149C21.7963 26.9733 21.5624 25.6593 20.7805 24.7858L16.9324 20.4842Z" fill="#111026"/>
<path d="M26.661 0H3.33898C1.36742 0.168796 -0.11697 2.07704 0.00726158 4.28305V17.1322C-0.11697 19.3382 1.36742 21.2465 3.33898 21.4153H4.2552C6.86702 21.4183 9.37252 20.2591 11.2185 18.1937L12.5678 16.7039C13.2119 15.9807 14.0871 15.5741 15 15.5741C15.9129 15.5741 16.7881 15.9807 17.4322 16.7039L18.7815 18.1937C20.6275 20.2591 23.133 21.4183 25.7448 21.4153H26.661C28.6326 21.2465 30.117 19.3382 29.9927 17.1322V4.28305C30.117 2.07704 28.6326 0.168796 26.661 0Z" fill="#111026"/>
</svg>
